<svg version="1.2" xmlns="http://www.w3.org/2000/svg" viewBox="0 0 586 586" width="586" height="586">
	<path id="Color Fill 1" fill-rule="evenodd" fill="#ffffff" d="m289.5 13.15c5.5-0.09 14.73 0.31 20.5 0.89 5.77 0.58 15.68 2.21 22 3.62 6.32 1.41 15.32 3.89 20 5.52 4.68 1.62 13 5.12 18.5 7.77 5.5 2.65 14.73 7.99 20.5 11.88 5.77 3.88 13.49 9.67 17.13 12.86 3.65 3.2 10.32 9.86 14.83 14.81 4.5 4.95 11.35 13.72 15.2 19.5 3.86 5.78 9.43 15.45 12.37 21.5 2.95 6.05 6.96 15.84 8.92 21.75 1.95 5.91 4.5 15.81 5.67 22 1.73 9.18 2.22 16.57 3.21 69.25l2.58 2.64c1.91 1.96 4.95 3.21 11.59 4.77 4.95 1.17 11.93 3.5 15.5 5.18 3.57 1.69 9.2 4.99 12.5 7.34 3.3 2.36 8.41 6.94 11.36 10.18 2.95 3.24 7.3 9.49 9.66 13.89 2.36 4.4 5.42 11.6 6.8 16 1.37 4.4 3.02 12.5 3.66 18 0.82 7.09 1.04 33.84 0.74 92-0.34 67.97-0.67 83.28-1.92 89.5-0.83 4.13-2.76 11.32-4.3 16-1.53 4.68-4.35 11.65-6.28 15.5-1.92 3.85-5.31 9.7-7.53 13-2.22 3.3-7.45 9.51-11.61 13.81-4.17 4.3-10.73 9.98-14.58 12.62-3.85 2.65-9.93 6.28-13.5 8.08-3.57 1.8-8.98 4.14-12 5.19-3.02 1.06-10 2.8-15.5 3.86-9.62 1.87-15.87 1.94-321 1.97l-10-2.52c-5.5-1.38-13.82-4.35-18.5-6.59-4.67-2.25-11.64-6.18-15.48-8.75-3.84-2.57-9.47-6.97-12.5-9.77-3.04-2.81-8.09-8.43-11.22-12.5-3.14-4.07-7.99-11.9-10.79-17.4-2.8-5.5-6.38-14.05-7.95-19-1.58-4.95-3.39-13.27-4.03-18.5-0.82-6.74-1.06-34.34-0.46-180.5l2.78-9.5c1.53-5.23 4.76-13.32 7.19-18 2.53-4.86 7.1-11.46 10.69-15.4 3.45-3.8 8.97-8.83 12.27-11.18 3.3-2.35 8.93-5.64 12.5-7.31 3.58-1.67 10.78-4.18 16-5.58 5.22-1.4 10.32-3.33 11.32-4.29 1.64-1.58 1.85-4.25 2.2-28.74 0.25-18.06 0.92-30.64 2.02-38 0.91-6.05 2.89-15.28 4.41-20.5 1.52-5.22 4.01-12.65 5.55-16.5 1.53-3.85 4.35-10.15 6.27-14 1.92-3.85 5.51-10.15 7.98-14 2.48-3.85 7.56-10.83 11.29-15.5 3.73-4.68 11.21-12.8 16.62-18.06 5.41-5.26 12.54-11.6 15.84-14.09 3.3-2.49 8.59-6.17 11.75-8.19 3.16-2.01 10.36-5.97 16-8.79 5.64-2.81 15.43-6.84 21.75-8.95 6.32-2.11 16.68-4.73 23-5.84 6.32-1.1 13.07-2.17 15-2.38 1.93-0.21 8-0.46 13.5-0.55zm-17.5 66.46c-4.68 0.86-13 3.31-18.5 5.46-5.5 2.14-14.05 6.51-19 9.71-4.95 3.2-11.93 8.55-15.5 11.88-3.57 3.34-8.38 8.49-10.67 11.45-2.29 2.97-5.93 8.31-8.08 11.89-2.15 3.57-5.55 10.32-7.56 15-2 4.68-4.77 13.45-6.16 19.5-2.32 10.18-2.51 12.88-2.52 36.25l-0.01 25.25c5.48 4.07 6.1 4.08 110.34 3.79l104.84-0.29c3.75-4.81 3.9-6.66 3.87-26.5-0.03-15.13-0.52-24.32-1.66-31-0.89-5.23-2.97-13.32-4.61-18-1.64-4.68-4.84-12.1-7.12-16.5-2.27-4.4-6.84-11.57-10.15-15.94-3.3-4.37-9.5-11.12-13.76-15-4.26-3.88-11.68-9.55-16.5-12.6-4.81-3.04-12.8-7.01-17.75-8.81-4.95-1.81-12.15-3.98-16-4.82-3.85-0.84-13.3-1.69-21-1.9-9.83-0.26-16.53 0.09-22.5 1.18zm-141 211.45c-3.03 0.3-7.97 1.72-11 3.14-3.03 1.43-6.96 4.33-8.75 6.45-1.79 2.12-4.03 5.87-4.98 8.35-1.56 4.06-1.76 10.73-2.06 67.5-0.22 40.68 0.05 66.37 0.74 72.5 0.77 6.79 1.9 11.21 3.97 15.5 1.74 3.62 5.01 7.99 8.23 11.02 3.07 2.89 7.48 5.82 10.35 6.89 4.06 1.52 9.03 1.99 26.34 2.48l21.34 0.61c4.78 5.46 4.82 5.81 4.78 24.75-0.04 17.07 0.16 19.49 1.75 21.41 0.98 1.19 2.8 2.43 4.04 2.75 1.71 0.45 4.84-1.2 13-6.84 5.91-4.09 22.22-15.23 36.25-24.75l25.5-17.32c183.56-0.97 189.29-1.11 194-2.86 2.75-1.03 6.24-2.49 7.75-3.25 1.51-0.77 4.83-3.3 7.37-5.64 2.54-2.34 5.52-6.05 6.62-8.25 1.1-2.2 2.62-6.92 3.37-10.5 1.06-5.09 1.36-20.68 1.37-71.75 0.02-46.59-0.32-66.75-1.16-70.5-0.65-2.89-2.56-7.26-4.25-9.72-1.69-2.46-4.64-5.53-6.57-6.81-1.93-1.28-5.75-2.97-8.5-3.75-4.21-1.2-30.16-1.47-164.5-1.7-87.72-0.15-161.97-0.02-165 0.29z"/>
</svg>